<mxfile host="app.diagrams.net" modified="2024-05-13T17:10:55.493Z" agent="Mozilla/5.0 (Windows NT 10.0; Win64; x64) AppleWebKit/537.36 (KHTML, like Gecko) Chrome/124.0.0.0 Safari/537.36" etag="ohJ9kLF_EH-Ww0MU8_tW" version="24.3.1" type="github">
  <diagram name="Page-1" id="bg5PUJMc9OgYXb5h6lZY">
    <mxGraphModel dx="1434" dy="729" grid="1" gridSize="10" guides="1" tooltips="1" connect="1" arrows="1" fold="1" page="1" pageScale="1" pageWidth="827" pageHeight="1169" math="0" shadow="0">
      <root>
        <mxCell id="0" />
        <mxCell id="1" parent="0" />
        <mxCell id="wUa7nKo1y6oaQ1cb9hvW-3" value="" style="edgeStyle=orthogonalEdgeStyle;rounded=0;orthogonalLoop=1;jettySize=auto;html=1;" edge="1" parent="1" source="wUa7nKo1y6oaQ1cb9hvW-1" target="wUa7nKo1y6oaQ1cb9hvW-2">
          <mxGeometry relative="1" as="geometry" />
        </mxCell>
        <mxCell id="wUa7nKo1y6oaQ1cb9hvW-1" value="Start Server" style="rounded=0;whiteSpace=wrap;html=1;" vertex="1" parent="1">
          <mxGeometry x="350" y="350" width="120" height="60" as="geometry" />
        </mxCell>
        <mxCell id="wUa7nKo1y6oaQ1cb9hvW-5" value="" style="edgeStyle=orthogonalEdgeStyle;rounded=0;orthogonalLoop=1;jettySize=auto;html=1;" edge="1" parent="1" source="wUa7nKo1y6oaQ1cb9hvW-2" target="wUa7nKo1y6oaQ1cb9hvW-4">
          <mxGeometry relative="1" as="geometry" />
        </mxCell>
        <mxCell id="wUa7nKo1y6oaQ1cb9hvW-2" value="Initialize Modules" style="rounded=0;whiteSpace=wrap;html=1;" vertex="1" parent="1">
          <mxGeometry x="350" y="490" width="120" height="60" as="geometry" />
        </mxCell>
        <mxCell id="wUa7nKo1y6oaQ1cb9hvW-7" value="" style="edgeStyle=orthogonalEdgeStyle;rounded=0;orthogonalLoop=1;jettySize=auto;html=1;" edge="1" parent="1" source="wUa7nKo1y6oaQ1cb9hvW-4" target="wUa7nKo1y6oaQ1cb9hvW-6">
          <mxGeometry relative="1" as="geometry" />
        </mxCell>
        <mxCell id="wUa7nKo1y6oaQ1cb9hvW-4" value="Create Database Connections" style="rounded=0;whiteSpace=wrap;html=1;" vertex="1" parent="1">
          <mxGeometry x="350" y="630" width="120" height="60" as="geometry" />
        </mxCell>
        <mxCell id="wUa7nKo1y6oaQ1cb9hvW-9" value="" style="edgeStyle=orthogonalEdgeStyle;rounded=0;orthogonalLoop=1;jettySize=auto;html=1;" edge="1" parent="1" source="wUa7nKo1y6oaQ1cb9hvW-6" target="wUa7nKo1y6oaQ1cb9hvW-8">
          <mxGeometry relative="1" as="geometry" />
        </mxCell>
        <mxCell id="wUa7nKo1y6oaQ1cb9hvW-6" value="Create HTTP Server" style="rounded=0;whiteSpace=wrap;html=1;" vertex="1" parent="1">
          <mxGeometry x="350" y="770" width="120" height="60" as="geometry" />
        </mxCell>
        <mxCell id="wUa7nKo1y6oaQ1cb9hvW-8" value="Handle OPTIONS Request" style="rounded=0;whiteSpace=wrap;html=1;" vertex="1" parent="1">
          <mxGeometry x="350" y="910" width="120" height="60" as="geometry" />
        </mxCell>
      </root>
    </mxGraphModel>
  </diagram>
</mxfile>
